/vscmnt/brussel_pixiu_data/_data_brussel/112/vsc11236/PredSimResults/SUBJ04mtu3D/worker5.mot
version=1
nRows=11
nColumns=50
inDegrees=yes
endheader
                time	         pelvis_tilt	         pelvis_list	     pelvis_rotation	           pelvis_tx	           pelvis_ty	           pelvis_tz	       hip_flexion_r	     hip_adduction_r	      hip_rotation_r	        knee_angle_r	       ankle_angle_r	         mtp_angle_r	       hip_flexion_l	     hip_adduction_l	      hip_rotation_l	        knee_angle_l	       ankle_angle_l	         mtp_angle_l	    lumbar_extension	      lumbar_bending	     lumbar_rotation	 ercspn_r/activation	 intobl_r/activation	 extobl_r/activation	    abd_r/activation	    add_r/activation	hamstrings_r/activation	bifemsh_r/activation	glut_max_r/activation	iliopsoas_r/activation	rect_fem_r/activation	  vasti_r/activation	gastroc_r/activation	 soleus_r/activation	tib_ant_r/activation	 ercspn_l/activation	 intobl_l/activation	 extobl_l/activation	    abd_l/activation	    add_l/activation	hamstrings_l/activation	bifemsh_l/activation	glut_max_l/activation	iliopsoas_l/activation	rect_fem_l/activation	  vasti_l/activation	gastroc_l/activation	 soleus_l/activation	tib_ant_l/activation	
          0.69054317	         -3.38986864	          3.09016240	        -10.68701513	          0.64911058	          0.88019472	          0.00815414	         -9.60995597	         -4.36188300	          5.79043432	        -13.07731467	         14.04127333	         24.99768843	         27.14116730	         -0.05744818	         -4.93055213	         -3.69559017	          4.45677317	          0.22385928	        -14.00189772	          0.40374344	          1.50511942	          0.01000000	          0.00999999	          0.00999999	          0.03465881	          0.01000000	          0.01491461	          0.16403538	          0.02817374	          0.09973687	          0.01000001	          0.00999999	          0.28416982	          0.14771066	          0.00999999	          0.02369067	          0.22453165	          0.09742749	          0.01000002	          0.12660552	          0.02920003	          0.07051773	          0.02326621	          0.13141331	          0.04365891	          0.01472471	          0.01000000	          0.01000000	          0.31998362	
          0.70435404	         -3.41539276	          3.06347859	        -10.57247658	          0.66562553	          0.87799693	          0.00788638	        -10.31397802	         -4.45829115	          5.23813528	        -13.83142923	         13.58971102	         26.49185673	         26.79878580	          0.15823780	         -4.84837488	         -4.61449604	          4.03933941	          0.23210953	        -13.61826519	         -0.17444332	          1.34686713	          0.01000001	          0.01000000	          0.01000000	          0.02817374	          0.01230182	          0.02552067	          0.13334249	          0.02290212	          0.11573031	          0.01000001	          0.01000000	          0.26323685	          0.13548665	          0.00999999	          0.01925787	          0.19266383	          0.07919769	          0.01000000	          0.12749196	          0.02876933	          0.05732308	          0.05323394	          0.10682436	          0.03548983	          0.01230179	          0.01513344	          0.01513345	          0.32013385	
          0.71816490	         -3.42599088	          3.06763740	        -10.40502994	          0.68248128	          0.87594405	          0.00755863	        -10.84647452	         -4.56502786	          4.65037501	        -14.97060469	         13.05400393	         28.05090850	         26.39372170	          0.40630546	         -4.77177499	         -5.72462142	          3.60485392	          0.22350406	        -13.21100684	         -0.81099126	          1.18822736	          0.01000006	          0.00999999	          0.01000000	          0.02290211	          0.01000002	          0.02074549	          0.10839258	          0.01861687	          0.13677814	          0.01000001	          0.01000000	          0.22139757	          0.11013554	          0.00999999	          0.01565452	          0.15661424	          0.06437889	          0.04801737	          0.10547483	          0.03961747	          0.04659731	          0.07455956	          0.08683629	          0.02884928	          0.01000000	          0.01230180	          0.01230181	          0.35949755	
          0.73197576	         -3.42524430	          3.09916971	        -10.18317357	          0.69939384	          0.87430107	          0.00715889	        -11.11204264	         -4.67385544	          4.04073624	        -16.60900701	         12.36107787	         29.65899320	         25.98924763	          0.67923028	         -4.74040298	         -6.80739469	          3.02537320	          0.20588459	        -12.81289917	         -1.49705449	          1.01986004	          0.02995802	          0.00999999	          0.01000000	          0.01861686	          0.01000018	          0.02946009	          0.08811109	          0.01513344	          0.15127560	          0.01000001	          0.01000001	          0.17997153	          0.08952792	          0.00999999	          0.01272546	          0.12730991	          0.05233286	          0.08920643	          0.11060484	          0.04170671	          0.03787844	          0.06646838	          0.07058822	          0.02345125	          0.03251189	          0.01000000	          0.01000001	          0.38942054	
          0.74578663	         -3.41516461	          3.15776058	         -9.91391096	          0.71617622	          0.87326270	          0.00669504	        -11.05632064	         -4.78623522	          3.41170551	        -18.78986911	         11.41916408	         31.30225146	         25.60601438	          0.97941573	         -4.74270982	         -7.93732789	          2.56525674	          0.18435708	        -12.44320760	         -2.22795214	          0.84152527	          0.04751279	          0.00999999	          0.01000000	          0.01513343	          0.02932492	          0.03677859	          0.07162452	          0.01230180	          0.16331577	          0.01000000	          0.01000000	          0.14629678	          0.07277621	          0.00999999	          0.01034480	          0.10348876	          0.04254078	          0.11529005	          0.12152669	          0.04842028	          0.03079099	          0.06416313	          0.05738035	          0.01906326	          0.05575240	          0.01000000	          0.01000000	          0.40644307	
          0.75959749	         -3.39799440	          3.23167981	         -9.59842230	          0.73271191	          0.87295698	          0.00618916	        -10.65581450	         -4.89330136	          2.75641016	        -21.50717779	         10.14154298	         32.91603426	         25.20200322	          1.29853083	         -4.76041317	         -9.04279712	          2.29381501	          0.16251525	        -12.11343391	         -2.98797892	          0.65160554	          0.06801940	          0.01000000	          0.01000000	          0.01230180	          0.05715437	          0.04737208	          0.05822306	          0.01000000	          0.16507665	          0.01000000	          0.00999999	          0.11892297	          0.05915894	          0.01000001	          0.01000004	          0.08412482	          0.03458091	          0.13200878	          0.12124268	          0.05308941	          0.02502968	          0.06658570	          0.04664383	          0.01549630	          0.08318099	          0.01000002	          0.01000002	          0.40541662	
          0.77340835	         -3.37617335	          3.30345795	         -9.23426063	          0.74890724	          0.87347474	          0.00567747	         -9.90053803	         -4.98167197	          2.06895378	        -24.75339228	          8.61287804	         34.08634632	         24.70658942	          1.62404428	         -4.76748431	         -9.98337566	          2.19023156	          0.14580025	        -11.83282533	         -3.75787055	          0.44674851	          0.06657714	          0.01000000	          0.01000004	          0.00999999	          0.10366702	          0.04004623	          0.06192158	          0.00999999	          0.15465241	          0.00999999	          0.00999999	          0.09667111	          0.04808962	          0.04567657	          0.01000001	          0.06838410	          0.02811042	          0.14022612	          0.13823813	          0.05869745	          0.02034640	          0.06839971	          0.03791623	          0.01259677	          0.10115550	          0.01000081	          0.01004065	          0.39325701	
          0.78721922	         -3.35091293	          3.35065567	         -8.81719183	          0.76470824	          0.87475531	          0.00520535	         -8.79506131	         -5.03655069	          1.33954606	        -28.54619569	          7.13375794	         34.07673810	         24.06427739	          1.93525130	         -4.74582530	        -10.64924487	          2.20102598	          0.13567574	        -11.60733620	         -4.51547882	          0.22274281	          0.05462096	          0.01000000	          0.02455778	          0.00999999	          0.13455967	          0.03255313	          0.05672435	          0.00999999	          0.13654078	          0.00999999	          0.00999999	          0.07858283	          0.03909150	          0.08341424	          0.01000001	          0.05558865	          0.02285064	          0.12758002	          0.12516533	          0.06224358	          0.01653943	          0.06903784	          0.03082167	          0.01023978	          0.11295784	          0.01000001	          0.01000001	          0.37783064	
          0.80103008	         -3.32250320	          3.35450796	         -8.34277599	          0.78009414	          0.87665252	          0.00479705	         -7.38165446	         -5.05152765	          0.58281145	        -32.78314422	          5.70109160	         32.77751055	         23.27242772	          2.21207879	         -4.67111494	        -11.03378703	          2.30132515	          0.13310930	        -11.44115017	         -5.24000383	         -0.02136306	          0.04440093	          0.01498484	          0.04553077	          0.00999999	          0.14357659	          0.02646207	          0.04718981	          0.00999999	          0.12049999	          0.00999999	          0.00999999	          0.06387908	          0.03177703	          0.13596974	          0.01000001	          0.04518737	          0.01857502	          0.12052612	          0.10174545	          0.06087780	          0.01344479	          0.06454139	          0.02505458	          0.01000001	          0.11064383	          0.01000001	          0.01000001	          0.35510028	
          0.81484094	         -3.29070023	          3.30440018	         -7.81466788	          0.79504886	          0.87896767	          0.00445680	         -5.74420492	         -5.02437059	         -0.17263799	        -37.27737313	          4.36590736	         30.17999141	         22.37947676	          2.44062347	         -4.49977713	        -11.22420976	          2.48685641	          0.14511982	        -11.33672440	         -5.91413225	         -0.28030008	          0.07668436	          0.04857266	          0.05706573	          0.00999999	          0.11671175	          0.02151071	          0.04879102	          0.00999999	          0.11621207	          0.00999999	          0.00999999	          0.05192657	          0.02583119	          0.19525084	          0.01000001	          0.03673229	          0.01509942	          0.12875345	          0.08270771	          0.05540907	          0.01092920	          0.06271160	          0.02036658	          0.01000001	          0.10210683	          0.01000001	          0.01000002	          0.33066912	
          0.82865181	         -3.25488013	          3.19733213	         -7.24402464	          0.80958326	          0.88150598	          0.00415768	         -3.99548300	         -4.95088929	         -0.90015339	        -41.80257097	          3.31326680	         26.42362715	         21.42618953	          2.61398302	         -4.21109321	        -11.28575636	          2.70680908	          0.18416153	        -11.29069949	         -6.51796388	         -0.54943401	          0.09991987	          0.07693236	          0.09179161	          0.00999999	          0.09487364	          0.01748581	          0.04478341	          0.00999999	          0.12160416	          0.01000000	          0.00999999	          0.04221051	          0.02099788	          0.26349637	          0.01000000	          0.02985926	          0.01227415	          0.12555614	          0.06723214	          0.04845055	          0.01000018	          0.05949537	          0.01655576	          0.01000002	          0.09451000	          0.01000000	          0.01000000	          0.30668804	
